<?xml version="1.0" standalone="no"?>
<!DOCTYPE svg PUBLIC "-//W3C//DTD SVG 20010904//EN"
 "http://www.w3.org/TR/2001/REC-SVG-20010904/DTD/svg10.dtd">
<svg version="1.0" xmlns="http://www.w3.org/2000/svg"
 width="700.000000pt" height="700.000000pt" viewBox="0 0 700.000000 700.000000"
 preserveAspectRatio="xMidYMid meet">
<metadata>
Created by potrace 1.11, written by Peter Selinger 2001-2013
</metadata>
<g transform="translate(0.000000,700.000000) scale(0.100000,-0.100000)"
fill="#000000" stroke="none">
<path d="M3300 6777 c-3 -3 -41 -7 -85 -10 -468 -32 -1012 -210 -1430 -470
-87 -54 -256 -169 -277 -189 -7 -7 -31 -26 -53 -43 -54 -40 -196 -167 -279
-251 -300 -298 -550 -675 -712 -1069 -33 -81 -89 -236 -99 -275 -2 -8 -17 -64
-34 -123 -28 -102 -64 -271 -76 -362 -3 -22 -7 -53 -10 -70 -27 -179 -28 -614
-1 -825 13 -100 20 -138 41 -240 60 -291 143 -535 270 -795 87 -177 155 -289
295 -489 159 -226 484 -554 700 -705 203 -143 340 -226 495 -300 61 -29 118
-57 127 -62 123 -63 521 -189 678 -215 14 -3 48 -9 75 -14 173 -33 302 -43
545 -44 288 -1 400 8 645 50 139 24 417 104 575 166 199 77 426 194 601 309
64 42 200 139 209 149 3 3 25 21 50 40 150 114 367 331 511 510 342 427 576
943 670 1480 16 95 16 95 31 215 19 164 15 701 -6 766 -3 8 -7 37 -10 64 -3
28 -10 75 -16 105 -6 30 -13 67 -15 83 -12 63 -77 299 -108 392 -68 199 -175
435 -259 574 -21 34 -38 65 -38 66 0 13 -179 269 -249 355 -130 163 -337 372
-476 483 -11 9 -45 35 -75 60 -74 58 -227 163 -324 221 -334 201 -702 340
-1086 410 -74 14 -164 28 -200 32 -36 4 -76 9 -90 11 -37 6 -505 15 -510 10z
m435 -1101 c44 -6 80 -12 191 -31 222 -37 563 -176 774 -317 375 -249 654
-588 824 -1000 50 -121 105 -301 121 -401 3 -18 10 -57 15 -88 31 -171 33
-483 5 -654 -41 -249 -94 -422 -200 -641 -234 -488 -653 -876 -1165 -1079
-101 -40 -303 -100 -373 -110 -23 -4 -64 -11 -90 -16 -82 -15 -196 -23 -337
-23 -122 0 -306 11 -321 20 -3 1 -28 6 -55 9 -152 20 -410 105 -592 194 -281
139 -557 361 -742 597 -73 94 -200 283 -200 299 0 3 -10 22 -23 43 -56 90
-144 316 -182 467 -53 204 -69 340 -69 555 0 229 22 387 80 594 105 366 284
674 547 939 192 193 357 312 592 427 230 114 513 196 740 215 44 4 81 8 83 9
5 6 331 -2 377 -8z"/>
</g>
</svg>
